<svg xmlns="http://www.w3.org/2000/svg" viewBox="0 0 900 900" style="background:#070A14">
<circle cx="450" cy="450" r="30.508474576271187" fill="#E8A33D"/>
<circle cx="524.1" cy="474.9" r="11.1" fill="#4FA8FF" opacity="0.9"><title>line (g1, i5)</title></circle>
<circle cx="514.3" cy="509.5" r="11.1" fill="#4FA8FF" opacity="0.9"><title>super-app (g1, i5)</title></circle>
<circle cx="371.3" cy="617.9" r="7.7" fill="#4FA8FF" opacity="0.9"><title>wechat (g1, i3)</title></circle>
<circle cx="430.2" cy="581.4" r="7.7" fill="#4FA8FF" opacity="0.9"><title>mini-program (g1, i3)</title></circle>
<circle cx="413.8" cy="592.8" r="7.7" fill="#4FA8FF" opacity="0.9"><title>thailand-5g (g1, i3)</title></circle>
<circle cx="507.1" cy="535.6" r="7.7" fill="#4FA8FF" opacity="0.9"><title>asean-digital-economy (g1, i3)</title></circle>
<circle cx="527.9" cy="458.6" r="7.7" fill="#4FA8FF" opacity="0.9"><title>ais (g1, i3)</title></circle>
<circle cx="330.1" cy="584.7" r="7.7" fill="#4FA8FF" opacity="0.9"><title>true-corporation (g1, i3)</title></circle>
<circle cx="492.9" cy="548.4" r="7.7" fill="#4FA8FF" opacity="0.9"><title>gojek (g1, i3)</title></circle>
<circle cx="158.5" cy="458.3" r="6.0" fill="#4FA8FF" opacity="0.9"><title>thailand-4g-delay (g1, i2)</title></circle>
<circle cx="268.6" cy="594.6" r="6.0" fill="#4FA8FF" opacity="0.9"><title>dtac (g1, i2)</title></circle>
<circle cx="464.3" cy="565.2" r="7.7" fill="#4FA8FF" opacity="0.9"><title>facebook (g1, i3)</title></circle>
<circle cx="358.6" cy="586.1" r="7.7" fill="#4FA8FF" opacity="0.9"><title>tiktok (g1, i3)</title></circle>
<circle cx="280.6" cy="551.7" r="7.7" fill="#4FA8FF" opacity="0.9"><title>youtube (g1, i3)</title></circle>
<circle cx="489.3" cy="577.1" r="7.7" fill="#4FA8FF" opacity="0.9"><title>mobile-first (g1, i3)</title></circle>
<circle cx="453.5" cy="608.0" r="7.7" fill="#4FA8FF" opacity="0.9"><title>thailand-ev-hub (g1, i3)</title></circle>
<circle cx="143.6" cy="352.0" r="4.3" fill="#4FA8FF" opacity="0.9"><title>prepaid-mobile (g1, i1)</title></circle>
<circle cx="181.1" cy="530.6" r="6.0" fill="#4FA8FF" opacity="0.9"><title>shoppertainment (g1, i2)</title></circle>
<circle cx="212.0" cy="554.3" r="6.0" fill="#4FA8FF" opacity="0.9"><title>japan-affinity (g1, i2)</title></circle>
<circle cx="295.5" cy="594.5" r="6.0" fill="#4FA8FF" opacity="0.9"><title>1997-asian-financial-crisis (g1, i2)</title></circle>
<circle cx="188.4" cy="443.0" r="6.0" fill="#4FA8FF" opacity="0.9"><title>line-creators-market (g1, i2)</title></circle>
<circle cx="253.7" cy="536.6" r="6.0" fill="#4FA8FF" opacity="0.9"><title>2011-thailand-flood (g1, i2)</title></circle>
<circle cx="322.9" cy="619.7" r="6.0" fill="#4FA8FF" opacity="0.9"><title>2014-thailand-coup (g1, i2)</title></circle>
<circle cx="149.8" cy="420.9" r="6.0" fill="#4FA8FF" opacity="0.9"><title>yingluck-shinawatra (g1, i2)</title></circle>
<circle cx="169.9" cy="444.2" r="6.0" fill="#4FA8FF" opacity="0.9"><title>sea-group (g1, i2)</title></circle>
<circle cx="197.5" cy="505.9" r="6.0" fill="#4FA8FF" opacity="0.9"><title>garena (g1, i2)</title></circle>
<circle cx="118.5" cy="411.9" r="4.3" fill="#4FA8FF" opacity="0.9"><title>zalo (g1, i1)</title></circle>
<circle cx="237.1" cy="560.8" r="6.0" fill="#4FA8FF" opacity="0.9"><title>byd (g1, i2)</title></circle>
<circle cx="176.3" cy="273.1" r="4.3" fill="#4FA8FF" opacity="0.9"><title>imd-competitiveness-ranking (g1, i1)</title></circle>
<circle cx="440.8" cy="537.7" r="11.1" fill="#FF6A45" opacity="0.9"><title>promptpay (g2, i5)</title></circle>
<circle cx="434.1" cy="530.7" r="11.1" fill="#FF6A45" opacity="0.9"><title>line-man-wongnai (g2, i5)</title></circle>
<circle cx="467.4" cy="517.5" r="11.1" fill="#FF6A45" opacity="0.9"><title>grab (g2, i5)</title></circle>
<circle cx="398.2" cy="527.8" r="11.1" fill="#FF6A45" opacity="0.9"><title>truemoney (g2, i5)</title></circle>
<circle cx="317.7" cy="467.3" r="9.4" fill="#FF6A45" opacity="0.9"><title>c-commerce (g2, i4)</title></circle>
<circle cx="301.4" cy="478.5" r="9.4" fill="#FF6A45" opacity="0.9"><title>shopee (g2, i4)</title></circle>
<circle cx="297.9" cy="442.8" r="9.4" fill="#FF6A45" opacity="0.9"><title>qr-payment (g2, i4)</title></circle>
<circle cx="276.9" cy="320.0" r="7.7" fill="#FF6A45" opacity="0.9"><title>social-seller (g2, i3)</title></circle>
<circle cx="319.1" cy="500.0" r="9.4" fill="#FF6A45" opacity="0.9"><title>medical-tourism (g2, i4)</title></circle>
<circle cx="286.6" cy="282.5" r="7.7" fill="#FF6A45" opacity="0.9"><title>siriraj-hospital (g2, i3)</title></circle>
<circle cx="348.2" cy="503.6" r="9.4" fill="#FF6A45" opacity="0.9"><title>lazada (g2, i4)</title></circle>
<circle cx="256.9" cy="315.3" r="7.7" fill="#FF6A45" opacity="0.9"><title>tiktok-shop (g2, i3)</title></circle>
<circle cx="345.3" cy="527.3" r="9.4" fill="#FF6A45" opacity="0.9"><title>bank-of-thailand (g2, i4)</title></circle>
<circle cx="272.4" cy="381.7" r="7.7" fill="#FF6A45" opacity="0.9"><title>foodpanda (g2, i3)</title></circle>
<circle cx="293.3" cy="484.6" r="7.7" fill="#FF6A45" opacity="0.9"><title>bumrungrad-hospital (g2, i3)</title></circle>
<circle cx="255.0" cy="376.5" r="7.7" fill="#FF6A45" opacity="0.9"><title>line-bk (g2, i3)</title></circle>
<circle cx="254.7" cy="421.0" r="7.7" fill="#FF6A45" opacity="0.9"><title>kasikornbank (g2, i3)</title></circle>
<circle cx="271.8" cy="354.1" r="7.7" fill="#FF6A45" opacity="0.9"><title>ant-group (g2, i3)</title></circle>
<circle cx="271.6" cy="461.2" r="7.7" fill="#FF6A45" opacity="0.9"><title>rabbit-line-pay (g2, i3)</title></circle>
<circle cx="413.8" cy="176.7" r="6.0" fill="#FF6A45" opacity="0.9"><title>meituan (g2, i2)</title></circle>
<circle cx="327.1" cy="267.0" r="7.7" fill="#FF6A45" opacity="0.9"><title>scbx (g2, i3)</title></circle>
<circle cx="337.0" cy="233.1" r="7.7" fill="#FF6A45" opacity="0.9"><title>virtual-bank (g2, i3)</title></circle>
<circle cx="283.0" cy="415.0" r="7.7" fill="#FF6A45" opacity="0.9"><title>5g-smart-hospital (g2, i3)</title></circle>
<circle cx="493.8" cy="144.3" r="6.0" fill="#FF6A45" opacity="0.9"><title>smart-healthcare-initiative (g2, i2)</title></circle>
<circle cx="315.3" cy="215.2" r="6.0" fill="#FF6A45" opacity="0.9"><title>delivery-hero (g2, i2)</title></circle>
<circle cx="459.1" cy="150.0" r="6.0" fill="#FF6A45" opacity="0.9"><title>robinhood (g2, i2)</title></circle>
<circle cx="304.8" cy="242.2" r="6.0" fill="#FF6A45" opacity="0.9"><title>delivery-subsidy-war (g2, i2)</title></circle>
<circle cx="287.4" cy="319.9" r="7.7" fill="#FF6A45" opacity="0.9"><title>live-social-commerce (g2, i3)</title></circle>
<circle cx="434.6" cy="127.7" r="6.0" fill="#FF6A45" opacity="0.9"><title>wongnai (g2, i2)</title></circle>
<circle cx="534.1" cy="130.4" r="4.3" fill="#FF6A45" opacity="0.9"><title>gln (g2, i1)</title></circle>
<circle cx="410.3" cy="145.8" r="6.0" fill="#FF6A45" opacity="0.9"><title>lunit (g2, i2)</title></circle>
<circle cx="370.1" cy="152.9" r="6.0" fill="#FF6A45" opacity="0.9"><title>telemedicine (g2, i2)</title></circle>
<circle cx="509.2" cy="120.2" r="4.3" fill="#FF6A45" opacity="0.9"><title>minor-food-group (g2, i1)</title></circle>
<circle cx="277.5" cy="243.2" r="6.0" fill="#FF6A45" opacity="0.9"><title>line-shopping (g2, i2)</title></circle>
<circle cx="374.0" cy="196.0" r="6.0" fill="#FF6A45" opacity="0.9"><title>kol (g2, i2)</title></circle>
<circle cx="307.3" cy="191.5" r="6.0" fill="#FF6A45" opacity="0.9"><title>nft (g2, i2)</title></circle>
<circle cx="344.7" cy="150.9" r="4.3" fill="#FF6A45" opacity="0.9"><title>community-commerce (g2, i1)</title></circle>
<circle cx="264.1" cy="268.7" r="6.0" fill="#FF6A45" opacity="0.9"><title>king-chulalongkorn (g2, i2)</title></circle>
<circle cx="384.8" cy="489.2" r="11.1" fill="#18C98C" opacity="0.9"><title>thailand-4-0 (g3, i5)</title></circle>
<circle cx="364.4" cy="450.8" r="9.4" fill="#18C98C" opacity="0.9"><title>asean-digital-hub (g3, i4)</title></circle>
<circle cx="347.6" cy="388.2" r="9.4" fill="#18C98C" opacity="0.9"><title>bamboo-diplomacy (g3, i4)</title></circle>
<circle cx="355.3" cy="427.2" r="9.4" fill="#18C98C" opacity="0.9"><title>huawei (g3, i4)</title></circle>
<circle cx="387.7" cy="335.9" r="7.7" fill="#18C98C" opacity="0.9"><title>asean-ai-hub (g3, i3)</title></circle>
<circle cx="358.9" cy="323.5" r="7.7" fill="#18C98C" opacity="0.9"><title>digital-valley-thailand (g3, i3)</title></circle>
<circle cx="444.7" cy="288.9" r="7.7" fill="#18C98C" opacity="0.9"><title>us-bigtech-datacenter (g3, i3)</title></circle>
<circle cx="365.3" cy="361.8" r="9.4" fill="#18C98C" opacity="0.9"><title>digital-nomad (g3, i4)</title></circle>
<circle cx="388.9" cy="330.9" r="7.7" fill="#18C98C" opacity="0.9"><title>dtv-visa (g3, i3)</title></circle>
<circle cx="341.0" cy="355.2" r="7.7" fill="#18C98C" opacity="0.9"><title>eec (g3, i3)</title></circle>
<circle cx="763.6" cy="376.1" r="6.0" fill="#18C98C" opacity="0.9"><title>tiktok-thailand-investment (g3, i2)</title></circle>
<circle cx="411.3" cy="311.4" r="7.7" fill="#18C98C" opacity="0.9"><title>chiang-mai (g3, i3)</title></circle>
<circle cx="661.9" cy="261.6" r="6.0" fill="#18C98C" opacity="0.9"><title>phuket (g3, i2)</title></circle>
<circle cx="382.6" cy="300.7" r="7.7" fill="#18C98C" opacity="0.9"><title>smart-visa (g3, i3)</title></circle>
<circle cx="671.6" cy="301.1" r="6.0" fill="#18C98C" opacity="0.9"><title>ltr-visa (g3, i2)</title></circle>
<circle cx="612.3" cy="256.1" r="6.0" fill="#18C98C" opacity="0.9"><title>innovation-one-fund (g3, i2)</title></circle>
<circle cx="724.6" cy="310.3" r="6.0" fill="#18C98C" opacity="0.9"><title>set (g3, i2)</title></circle>
<circle cx="667.8" cy="284.8" r="6.0" fill="#18C98C" opacity="0.9"><title>mai (g3, i2)</title></circle>
<circle cx="557.2" cy="235.7" r="6.0" fill="#18C98C" opacity="0.9"><title>giztix (g3, i2)</title></circle>
<circle cx="635.0" cy="229.8" r="6.0" fill="#18C98C" opacity="0.9"><title>ricult (g3, i2)</title></circle>
<circle cx="466.2" cy="245.4" r="6.0" fill="#18C98C" opacity="0.9"><title>doctor-raksa (g3, i2)</title></circle>
<circle cx="411.3" cy="284.0" r="6.0" fill="#18C98C" opacity="0.9"><title>abacus-digital (g3, i2)</title></circle>
<circle cx="648.6" cy="242.3" r="6.0" fill="#18C98C" opacity="0.9"><title>rabbit-care (g3, i2)</title></circle>
<circle cx="588.1" cy="264.5" r="6.0" fill="#18C98C" opacity="0.9"><title>finnomena (g3, i2)</title></circle>
<circle cx="606.4" cy="279.1" r="6.0" fill="#18C98C" opacity="0.9"><title>freshket (g3, i2)</title></circle>
<circle cx="538.5" cy="263.4" r="6.0" fill="#18C98C" opacity="0.9"><title>builk (g3, i2)</title></circle>
<circle cx="590.1" cy="238.9" r="6.0" fill="#18C98C" opacity="0.9"><title>hd (g3, i2)</title></circle>
<circle cx="493.9" cy="271.6" r="6.0" fill="#18C98C" opacity="0.9"><title>amity (g3, i2)</title></circle>
<circle cx="495.8" cy="228.4" r="6.0" fill="#18C98C" opacity="0.9"><title>etran (g3, i2)</title></circle>
<circle cx="736.5" cy="374.3" r="6.0" fill="#18C98C" opacity="0.9"><title>sea-lion (g3, i2)</title></circle>
<circle cx="428.9" cy="261.3" r="6.0" fill="#18C98C" opacity="0.9"><title>cloud-first-policy (g3, i2)</title></circle>
<circle cx="481.5" cy="250.6" r="6.0" fill="#18C98C" opacity="0.9"><title>deliveree (g3, i2)</title></circle>
<circle cx="393.9" cy="419.3" r="11.1" fill="#B072FF" opacity="0.9"><title>unicorn (g4, i5)</title></circle>
<circle cx="443.2" cy="358.6" r="9.4" fill="#B072FF" opacity="0.9"><title>flash-express (g4, i4)</title></circle>
<circle cx="556.6" cy="361.7" r="7.7" fill="#B072FF" opacity="0.9"><title>bangkok-valley (g4, i3)</title></circle>
<circle cx="450.2" cy="342.5" r="9.4" fill="#B072FF" opacity="0.9"><title>techsauce (g4, i4)</title></circle>
<circle cx="416.2" cy="381.6" r="9.4" fill="#B072FF" opacity="0.9"><title>boi (g4, i4)</title></circle>
<circle cx="479.2" cy="347.8" r="7.7" fill="#B072FF" opacity="0.9"><title>ascend-money (g4, i3)</title></circle>
<circle cx="632.3" cy="417.4" r="7.7" fill="#B072FF" opacity="0.9"><title>opn (g4, i3)</title></circle>
<circle cx="519.2" cy="347.9" r="7.7" fill="#B072FF" opacity="0.9"><title>bitkub (g4, i3)</title></circle>
<circle cx="420.8" cy="351.2" r="7.7" fill="#B072FF" opacity="0.9"><title>500-tuktuks (g4, i3)</title></circle>
<circle cx="555.0" cy="331.9" r="7.7" fill="#B072FF" opacity="0.9"><title>hubba (g4, i3)</title></circle>
<circle cx="718.2" cy="588.4" r="6.0" fill="#B072FF" opacity="0.9"><title>scale-up (g4, i2)</title></circle>
<circle cx="461.7" cy="327.1" r="7.7" fill="#B072FF" opacity="0.9"><title>cvc (g4, i3)</title></circle>
<circle cx="515.8" cy="320.4" r="7.7" fill="#B072FF" opacity="0.9"><title>depa (g4, i3)</title></circle>
<circle cx="576.5" cy="351.9" r="7.7" fill="#B072FF" opacity="0.9"><title>nia (g4, i3)</title></circle>
<circle cx="664.9" cy="579.4" r="6.0" fill="#B072FF" opacity="0.9"><title>ndid (g4, i2)</title></circle>
<circle cx="601.4" cy="390.3" r="7.7" fill="#B072FF" opacity="0.9"><title>krating-poonpol (g4, i3)</title></circle>
<circle cx="661.4" cy="432.1" r="6.0" fill="#B072FF" opacity="0.9"><title>amarit-charoenphan (g4, i2)</title></circle>
<circle cx="608.6" cy="366.7" r="7.7" fill="#B072FF" opacity="0.9"><title>ookbee (g4, i3)</title></circle>
<circle cx="580.4" cy="376.1" r="7.7" fill="#B072FF" opacity="0.9"><title>dtac-accelerate (g4, i3)</title></circle>
<circle cx="704.7" cy="557.0" r="6.0" fill="#B072FF" opacity="0.9"><title>paul-polapat-ark (g4, i2)</title></circle>
<circle cx="638.2" cy="385.4" r="7.7" fill="#B072FF" opacity="0.9"><title>techsauce-global-summit (g4, i3)</title></circle>
<circle cx="518.2" cy="344.6" r="7.7" fill="#B072FF" opacity="0.9"><title>china-capital-asean (g4, i3)</title></circle>
<circle cx="659.7" cy="669.9" r="6.0" fill="#B072FF" opacity="0.9"><title>sabai (g4, i2)</title></circle>
<circle cx="627.6" cy="362.7" r="7.7" fill="#B072FF" opacity="0.9"><title>tech-talent-shortage (g4, i3)</title></circle>
<circle cx="662.8" cy="400.9" r="6.0" fill="#B072FF" opacity="0.9"><title>krungsri-finnovate (g4, i2)</title></circle>
<circle cx="637.9" cy="446.6" r="7.7" fill="#B072FF" opacity="0.9"><title>scb-10x (g4, i3)</title></circle>
<circle cx="680.6" cy="654.9" r="4.3" fill="#B072FF" opacity="0.9"><title>chasm (g4, i1)</title></circle>
<circle cx="690.9" cy="536.1" r="6.0" fill="#B072FF" opacity="0.9"><title>openspace (g4, i2)</title></circle>
<circle cx="675.9" cy="505.3" r="6.0" fill="#B072FF" opacity="0.9"><title>line-scaleup (g4, i2)</title></circle>
<circle cx="629.9" cy="668.6" r="6.0" fill="#B072FF" opacity="0.9"><title>pdpa (g4, i2)</title></circle>
<circle cx="668.4" cy="546.2" r="6.0" fill="#B072FF" opacity="0.9"><title>mai-pen-rai (g4, i2)</title></circle>
<circle cx="660.8" cy="465.9" r="6.0" fill="#B072FF" opacity="0.9"><title>kreng-jai (g4, i2)</title></circle>
<circle cx="696.5" cy="471.1" r="6.0" fill="#B072FF" opacity="0.9"><title>open-government-data (g4, i2)</title></circle>
<circle cx="690.8" cy="494.5" r="6.0" fill="#B072FF" opacity="0.9"><title>natavudh-pungcharoenpong (g4, i2)</title></circle>
<circle cx="678.8" cy="599.3" r="6.0" fill="#B072FF" opacity="0.9"><title>oranuch-lerdsuwankij (g4, i2)</title></circle>
<circle cx="640.2" cy="701.3" r="6.0" fill="#B072FF" opacity="0.9"><title>sompoat-chansomboon (g4, i2)</title></circle>
<circle cx="470.5" cy="379.4" r="11.1" fill="#FF4F8B" opacity="0.9"><title>korean-wave (g5, i5)</title></circle>
<circle cx="502.8" cy="382.7" r="9.4" fill="#FF4F8B" opacity="0.9"><title>lisa (g5, i4)</title></circle>
<circle cx="566.4" cy="485.9" r="7.7" fill="#FF4F8B" opacity="0.9"><title>solo-economy (g5, i3)</title></circle>
<circle cx="507.0" cy="398.4" r="7.7" fill="#FF4F8B" opacity="0.9"><title>bad-genius (g5, i3)</title></circle>
<circle cx="561.1" cy="409.8" r="7.7" fill="#FF4F8B" opacity="0.9"><title>byungmat-humor (g5, i3)</title></circle>
<circle cx="557.8" cy="445.0" r="7.7" fill="#FF4F8B" opacity="0.9"><title>k-beauty (g5, i3)</title></circle>
<circle cx="578.5" cy="493.9" r="7.7" fill="#FF4F8B" opacity="0.9"><title>thailand-pet-market (g5, i3)</title></circle>
<circle cx="558.1" cy="447.0" r="7.7" fill="#FF4F8B" opacity="0.9"><title>private-education-boom (g5, i3)</title></circle>
<circle cx="577.1" cy="575.8" r="6.0" fill="#FF4F8B" opacity="0.9"><title>cannes-lions (g5, i2)</title></circle>
<circle cx="475.8" cy="661.5" r="6.0" fill="#FF4F8B" opacity="0.9"><title>localization-autonomy (g5, i2)</title></circle>
<circle cx="573.3" cy="548.5" r="7.7" fill="#FF4F8B" opacity="0.9"><title>thailand-aging-society (g5, i3)</title></circle>
<circle cx="571.6" cy="613.2" r="6.0" fill="#FF4F8B" opacity="0.9"><title>lisa-effect (g5, i2)</title></circle>
<circle cx="398.0" cy="728.2" r="6.0" fill="#FF4F8B" opacity="0.9"><title>thacca (g5, i2)</title></circle>
<circle cx="467.2" cy="712.9" r="6.0" fill="#FF4F8B" opacity="0.9"><title>tesf (g5, i2)</title></circle>
<circle cx="562.7" cy="598.8" r="6.0" fill="#FF4F8B" opacity="0.9"><title>edtech (g5, i2)</title></circle>
<circle cx="549.7" cy="586.0" r="6.0" fill="#FF4F8B" opacity="0.9"><title>chulalongkorn-university (g5, i2)</title></circle>
<circle cx="515.0" cy="635.2" r="6.0" fill="#FF4F8B" opacity="0.9"><title>line-man-youtube-ad (g5, i2)</title></circle>
<circle cx="398.1" cy="687.4" r="6.0" fill="#FF4F8B" opacity="0.9"><title>pet-food-market (g5, i2)</title></circle>
<circle cx="448.7" cy="679.3" r="6.0" fill="#FF4F8B" opacity="0.9"><title>megastudy (g5, i2)</title></circle>
<circle cx="547.6" cy="636.3" r="6.0" fill="#FF4F8B" opacity="0.9"><title>mathpresso (g5, i2)</title></circle>
<circle cx="421.6" cy="710.8" r="6.0" fill="#FF4F8B" opacity="0.9"><title>pisa (g5, i2)</title></circle>
<circle cx="593.8" cy="467.5" r="6.0" fill="#FF4F8B" opacity="0.9"><title>15-year-free-education (g5, i2)</title></circle>
<circle cx="526.3" cy="611.7" r="6.0" fill="#FF4F8B" opacity="0.9"><title>cosmax (g5, i2)</title></circle>
<circle cx="529.1" cy="608.4" r="6.0" fill="#FF4F8B" opacity="0.9"><title>kakao-webtoon (g5, i2)</title></circle>
<circle cx="536.2" cy="670.1" r="6.0" fill="#FF4F8B" opacity="0.9"><title>naver-webtoon (g5, i2)</title></circle>
<circle cx="374.2" cy="709.1" r="6.0" fill="#FF4F8B" opacity="0.9"><title>sunsilk-bethatgirl (g5, i2)</title></circle>
<circle cx="485.1" cy="693.3" r="6.0" fill="#FF4F8B" opacity="0.9"><title>netflix-narcos-ad (g5, i2)</title></circle>
<circle cx="334.0" cy="748.8" r="4.3" fill="#FF4F8B" opacity="0.9"><title>ondemand-academy (g5, i1)</title></circle>
<circle cx="419.9" cy="746.2" r="4.3" fill="#FF4F8B" opacity="0.9"><title>co-living (g5, i1)</title></circle>
<circle cx="183.1" cy="651.4" r="4.3" fill="#FF4F8B" opacity="0.9"><title>solo-dining (g5, i1)</title></circle>
<circle cx="329.5" cy="735.2" r="4.3" fill="#FF4F8B" opacity="0.9"><title>fintech (g5, i1)</title></circle>
<circle cx="840.4" cy="435.9" r="9.4" fill="#8B90A2" opacity="0.9"><title>digital-wallet-policy (g6, i4)</title></circle>
<circle cx="157.6" cy="693.7" r="7.7" fill="#8B90A2" opacity="0.9"><title>foreign-business-act (g6, i3)</title></circle>
<circle cx="258.3" cy="108.2" r="6.0" fill="#8B90A2" opacity="0.9"><title>foreign-business-license (g6, i2)</title></circle>
<circle cx="454.2" cy="72.9" r="7.7" fill="#8B90A2" opacity="0.9"><title>phaethongtarn-shinawatra (g6, i3)</title></circle>
<circle cx="352.1" cy="803.1" r="6.0" fill="#8B90A2" opacity="0.9"><title>ev-3-5-program (g6, i2)</title></circle>
<circle cx="114.6" cy="644.3" r="4.3" fill="#8B90A2" opacity="0.9"><title>vat (g6, i1)</title></circle>
<circle cx="805.7" cy="598.8" r="6.0" fill="#8B90A2" opacity="0.9"><title>nstda (g6, i2)</title></circle>
<circle cx="827.2" cy="397.1" r="6.0" fill="#8B90A2" opacity="0.9"><title>work-permit (g6, i2)</title></circle>
<circle cx="87.6" cy="608.3" r="6.0" fill="#8B90A2" opacity="0.9"><title>pheu-thai-party (g6, i2)</title></circle>
<circle cx="627.5" cy="93.5" r="6.0" fill="#8B90A2" opacity="0.9"><title>thai-llm (g6, i2)</title></circle>
<circle cx="130.3" cy="236.7" r="6.0" fill="#8B90A2" opacity="0.9"><title>true-digital-park (g6, i2)</title></circle>
<circle cx="666.7" cy="774.6" r="6.0" fill="#8B90A2" opacity="0.9"><title>bcg-policy (g6, i2)</title></circle>
<circle cx="69.1" cy="441.5" r="4.3" fill="#8B90A2" opacity="0.9"><title>ibc (g6, i1)</title></circle>
<circle cx="590.7" cy="794.4" r="6.0" fill="#8B90A2" opacity="0.9"><title>thai-startups-120 (g6, i2)</title></circle>
<circle cx="805.8" cy="279.4" r="6.0" fill="#8B90A2" opacity="0.9"><title>coworking-space (g6, i2)</title></circle>
<circle cx="314.2" cy="713.8" r="6.0" fill="#FF4F8B" opacity="0.9"><title>thailand-medical-tourism (g5, i2)</title></circle>
<circle cx="240.5" cy="708.9" r="4.3" fill="#FF4F8B" opacity="0.9"><title>truemove-h (g5, i1)</title></circle>
<circle cx="268.8" cy="696.1" r="4.3" fill="#FF4F8B" opacity="0.9"><title>bumrungrad-international (g5, i1)</title></circle>
<circle cx="583.4" cy="521.2" r="6.0" fill="#FF4F8B" opacity="0.9"><title>asean-digital-heart (g5, i2)</title></circle>
<circle cx="810.9" cy="520.2" r="4.3" fill="#8B90A2" opacity="0.9"><title>thailand-4-0-industrial-strategy (g6, i1)</title></circle>
<circle cx="230.3" cy="132.8" r="4.3" fill="#8B90A2" opacity="0.9"><title>smart-visa-program (g6, i1)</title></circle>
<circle cx="741.5" cy="698.3" r="4.3" fill="#8B90A2" opacity="0.9"><title>digital-economy-promotion-agency (g6, i1)</title></circle>
<circle cx="223.8" cy="757.4" r="4.3" fill="#8B90A2" opacity="0.9"><title>cloud-first-gov-policy (g6, i1)</title></circle>
<circle cx="417.4" cy="850.3" r="4.3" fill="#8B90A2" opacity="0.9"><title>ltr-visa-program (g6, i1)</title></circle>
<circle cx="414.2" cy="66.8" r="4.3" fill="#8B90A2" opacity="0.9"><title>destination-thailand-visa (g6, i1)</title></circle>
<circle cx="682.6" cy="161.6" r="4.3" fill="#8B90A2" opacity="0.9"><title>kreng-jai-culture (g6, i1)</title></circle>
<circle cx="690.6" cy="601.3" r="6.0" fill="#B072FF" opacity="0.9"><title>pi-nong (g4, i2)</title></circle>
<circle cx="444.3" cy="272.0" r="6.0" fill="#18C98C" opacity="0.9"><title>ais-evolution-experience-center (g3, i2)</title></circle>
<circle cx="718.9" cy="267.2" r="4.3" fill="#18C98C" opacity="0.9"><title>blue-zone-project (g3, i1)</title></circle>
<circle cx="792.1" cy="427.3" r="4.3" fill="#18C98C" opacity="0.9"><title>startup-thailand (g3, i1)</title></circle>
<circle cx="324.4" cy="218.0" r="6.0" fill="#FF6A45" opacity="0.9"><title>cp-group (g2, i2)</title></circle>
<circle cx="626.3" cy="725.0" r="4.3" fill="#B072FF" opacity="0.9"><title>seekster (g4, i1)</title></circle>
<circle cx="588.5" cy="747.8" r="4.3" fill="#B072FF" opacity="0.9"><title>silom-sathorn (g4, i1)</title></circle>
<circle cx="673.6" cy="690.6" r="4.3" fill="#B072FF" opacity="0.9"><title>pomelo (g4, i1)</title></circle>
<circle cx="68.2" cy="415.4" r="6.0" fill="#8B90A2" opacity="0.9"><title>corporate-co-funding (g6, i2)</title></circle>
<circle cx="561.4" cy="72.8" r="4.3" fill="#8B90A2" opacity="0.9"><title>wow-summit (g6, i1)</title></circle>
</svg>