<svg xmlns="http://www.w3.org/2000/svg" viewBox="0 0 900 900" style="background:#070A14">
<circle cx="450" cy="450" r="30.508474576271187" fill="#E8A33D"/>
<circle cx="524.1" cy="474.9" r="11.1" fill="#4FA8FF" opacity="0.9"><title>line (g1, i5)</title></circle>
<circle cx="525.1" cy="481.4" r="11.1" fill="#4FA8FF" opacity="0.9"><title>super-app (g1, i5)</title></circle>
<circle cx="358.9" cy="605.4" r="7.7" fill="#4FA8FF" opacity="0.9"><title>wechat (g1, i3)</title></circle>
<circle cx="470.8" cy="578.7" r="7.7" fill="#4FA8FF" opacity="0.9"><title>mini-program (g1, i3)</title></circle>
<circle cx="426.1" cy="585.5" r="7.7" fill="#4FA8FF" opacity="0.9"><title>thailand-5g (g1, i3)</title></circle>
<circle cx="499.8" cy="540.0" r="7.7" fill="#4FA8FF" opacity="0.9"><title>asean-digital-economy (g1, i3)</title></circle>
<circle cx="513.2" cy="504.0" r="7.7" fill="#4FA8FF" opacity="0.9"><title>ais (g1, i3)</title></circle>
<circle cx="391.7" cy="612.2" r="7.7" fill="#4FA8FF" opacity="0.9"><title>true-corporation (g1, i3)</title></circle>
<circle cx="471.2" cy="566.4" r="7.7" fill="#4FA8FF" opacity="0.9"><title>gojek (g1, i3)</title></circle>
<circle cx="148.0" cy="478.4" r="6.0" fill="#4FA8FF" opacity="0.9"><title>thailand-4g-delay (g1, i2)</title></circle>
<circle cx="223.7" cy="523.4" r="6.0" fill="#4FA8FF" opacity="0.9"><title>dtac (g1, i2)</title></circle>
<circle cx="512.2" cy="529.1" r="7.7" fill="#4FA8FF" opacity="0.9"><title>facebook (g1, i3)</title></circle>
<circle cx="339.6" cy="578.2" r="7.7" fill="#4FA8FF" opacity="0.9"><title>tiktok (g1, i3)</title></circle>
<circle cx="326.4" cy="599.6" r="7.7" fill="#4FA8FF" opacity="0.9"><title>youtube (g1, i3)</title></circle>
<circle cx="455.0" cy="590.8" r="7.7" fill="#4FA8FF" opacity="0.9"><title>mobile-first (g1, i3)</title></circle>
<circle cx="394.1" cy="603.3" r="7.7" fill="#4FA8FF" opacity="0.9"><title>thailand-ev-hub (g1, i3)</title></circle>
<circle cx="124.6" cy="426.6" r="4.3" fill="#4FA8FF" opacity="0.9"><title>prepaid-mobile (g1, i1)</title></circle>
<circle cx="178.3" cy="528.6" r="6.0" fill="#4FA8FF" opacity="0.9"><title>shoppertainment (g1, i2)</title></circle>
<circle cx="184.4" cy="463.7" r="6.0" fill="#4FA8FF" opacity="0.9"><title>japan-affinity (g1, i2)</title></circle>
<circle cx="294.1" cy="584.1" r="6.0" fill="#4FA8FF" opacity="0.9"><title>1997-asian-financial-crisis (g1, i2)</title></circle>
<circle cx="179.3" cy="428.7" r="6.0" fill="#4FA8FF" opacity="0.9"><title>line-creators-market (g1, i2)</title></circle>
<circle cx="271.1" cy="566.6" r="6.0" fill="#4FA8FF" opacity="0.9"><title>2011-thailand-flood (g1, i2)</title></circle>
<circle cx="294.9" cy="602.2" r="6.0" fill="#4FA8FF" opacity="0.9"><title>2014-thailand-coup (g1, i2)</title></circle>
<circle cx="148.9" cy="406.8" r="6.0" fill="#4FA8FF" opacity="0.9"><title>yingluck-shinawatra (g1, i2)</title></circle>
<circle cx="175.8" cy="394.3" r="6.0" fill="#4FA8FF" opacity="0.9"><title>sea-group (g1, i2)</title></circle>
<circle cx="211.7" cy="498.7" r="6.0" fill="#4FA8FF" opacity="0.9"><title>garena (g1, i2)</title></circle>
<circle cx="125.4" cy="390.7" r="4.3" fill="#4FA8FF" opacity="0.9"><title>zalo (g1, i1)</title></circle>
<circle cx="247.7" cy="551.3" r="6.0" fill="#4FA8FF" opacity="0.9"><title>byd (g1, i2)</title></circle>
<circle cx="133.6" cy="466.0" r="4.3" fill="#4FA8FF" opacity="0.9"><title>imd-competitiveness-ranking (g1, i1)</title></circle>
<circle cx="473.4" cy="521.1" r="11.1" fill="#FF6A45" opacity="0.9"><title>promptpay (g2, i5)</title></circle>
<circle cx="474.6" cy="518.6" r="11.1" fill="#FF6A45" opacity="0.9"><title>line-man-wongnai (g2, i5)</title></circle>
<circle cx="488.1" cy="506.6" r="11.1" fill="#FF6A45" opacity="0.9"><title>grab (g2, i5)</title></circle>
<circle cx="398.2" cy="533.6" r="11.1" fill="#FF6A45" opacity="0.9"><title>truemoney (g2, i5)</title></circle>
<circle cx="371.7" cy="526.7" r="9.4" fill="#FF6A45" opacity="0.9"><title>c-commerce (g2, i4)</title></circle>
<circle cx="367.3" cy="540.9" r="9.4" fill="#FF6A45" opacity="0.9"><title>shopee (g2, i4)</title></circle>
<circle cx="328.1" cy="505.8" r="9.4" fill="#FF6A45" opacity="0.9"><title>qr-payment (g2, i4)</title></circle>
<circle cx="267.9" cy="332.7" r="7.7" fill="#FF6A45" opacity="0.9"><title>social-seller (g2, i3)</title></circle>
<circle cx="332.5" cy="498.7" r="9.4" fill="#FF6A45" opacity="0.9"><title>medical-tourism (g2, i4)</title></circle>
<circle cx="302.9" cy="311.7" r="7.7" fill="#FF6A45" opacity="0.9"><title>siriraj-hospital (g2, i3)</title></circle>
<circle cx="350.5" cy="514.1" r="9.4" fill="#FF6A45" opacity="0.9"><title>lazada (g2, i4)</title></circle>
<circle cx="305.8" cy="283.4" r="7.7" fill="#FF6A45" opacity="0.9"><title>tiktok-shop (g2, i3)</title></circle>
<circle cx="405.0" cy="544.0" r="9.4" fill="#FF6A45" opacity="0.9"><title>bank-of-thailand (g2, i4)</title></circle>
<circle cx="285.7" cy="439.4" r="7.7" fill="#FF6A45" opacity="0.9"><title>foodpanda (g2, i3)</title></circle>
<circle cx="291.4" cy="475.0" r="7.7" fill="#FF6A45" opacity="0.9"><title>bumrungrad-hospital (g2, i3)</title></circle>
<circle cx="279.5" cy="461.1" r="7.7" fill="#FF6A45" opacity="0.9"><title>line-bk (g2, i3)</title></circle>
<circle cx="288.1" cy="410.9" r="7.7" fill="#FF6A45" opacity="0.9"><title>kasikornbank (g2, i3)</title></circle>
<circle cx="285.3" cy="400.0" r="7.7" fill="#FF6A45" opacity="0.9"><title>ant-group (g2, i3)</title></circle>
<circle cx="289.0" cy="342.8" r="7.7" fill="#FF6A45" opacity="0.9"><title>rabbit-line-pay (g2, i3)</title></circle>
<circle cx="379.1" cy="178.2" r="6.0" fill="#FF6A45" opacity="0.9"><title>meituan (g2, i2)</title></circle>
<circle cx="259.9" cy="406.5" r="7.7" fill="#FF6A45" opacity="0.9"><title>scbx (g2, i3)</title></circle>
<circle cx="246.7" cy="373.0" r="7.7" fill="#FF6A45" opacity="0.9"><title>virtual-bank (g2, i3)</title></circle>
<circle cx="303.2" cy="464.7" r="7.7" fill="#FF6A45" opacity="0.9"><title>5g-smart-hospital (g2, i3)</title></circle>
<circle cx="332.2" cy="167.9" r="6.0" fill="#FF6A45" opacity="0.9"><title>smart-healthcare-initiative (g2, i2)</title></circle>
<circle cx="271.0" cy="282.7" r="6.0" fill="#FF6A45" opacity="0.9"><title>delivery-hero (g2, i2)</title></circle>
<circle cx="447.8" cy="151.0" r="6.0" fill="#FF6A45" opacity="0.9"><title>robinhood (g2, i2)</title></circle>
<circle cx="271.1" cy="278.9" r="6.0" fill="#FF6A45" opacity="0.9"><title>delivery-subsidy-war (g2, i2)</title></circle>
<circle cx="288.9" cy="380.7" r="7.7" fill="#FF6A45" opacity="0.9"><title>live-social-commerce (g2, i3)</title></circle>
<circle cx="522.7" cy="135.8" r="6.0" fill="#FF6A45" opacity="0.9"><title>wongnai (g2, i2)</title></circle>
<circle cx="444.9" cy="118.3" r="4.3" fill="#FF6A45" opacity="0.9"><title>gln (g2, i1)</title></circle>
<circle cx="281.8" cy="229.8" r="6.0" fill="#FF6A45" opacity="0.9"><title>lunit (g2, i2)</title></circle>
<circle cx="483.9" cy="146.4" r="6.0" fill="#FF6A45" opacity="0.9"><title>telemedicine (g2, i2)</title></circle>
<circle cx="554.0" cy="125.3" r="4.3" fill="#FF6A45" opacity="0.9"><title>minor-food-group (g2, i1)</title></circle>
<circle cx="365.6" cy="203.7" r="6.0" fill="#FF6A45" opacity="0.9"><title>line-shopping (g2, i2)</title></circle>
<circle cx="300.6" cy="247.0" r="6.0" fill="#FF6A45" opacity="0.9"><title>kol (g2, i2)</title></circle>
<circle cx="422.8" cy="155.5" r="6.0" fill="#FF6A45" opacity="0.9"><title>nft (g2, i2)</title></circle>
<circle cx="400.4" cy="125.8" r="4.3" fill="#FF6A45" opacity="0.9"><title>community-commerce (g2, i1)</title></circle>
<circle cx="278.7" cy="255.4" r="6.0" fill="#FF6A45" opacity="0.9"><title>king-chulalongkorn (g2, i2)</title></circle>
<circle cx="398.5" cy="488.2" r="11.1" fill="#18C98C" opacity="0.9"><title>thailand-4-0 (g3, i5)</title></circle>
<circle cx="373.5" cy="459.5" r="9.4" fill="#18C98C" opacity="0.9"><title>asean-digital-hub (g3, i4)</title></circle>
<circle cx="372.7" cy="482.6" r="9.4" fill="#18C98C" opacity="0.9"><title>bamboo-diplomacy (g3, i4)</title></circle>
<circle cx="352.0" cy="435.7" r="9.4" fill="#18C98C" opacity="0.9"><title>huawei (g3, i4)</title></circle>
<circle cx="365.9" cy="377.4" r="7.7" fill="#18C98C" opacity="0.9"><title>asean-ai-hub (g3, i3)</title></circle>
<circle cx="338.6" cy="422.5" r="7.7" fill="#18C98C" opacity="0.9"><title>digital-valley-thailand (g3, i3)</title></circle>
<circle cx="376.9" cy="322.9" r="7.7" fill="#18C98C" opacity="0.9"><title>us-bigtech-datacenter (g3, i3)</title></circle>
<circle cx="361.8" cy="440.8" r="9.4" fill="#18C98C" opacity="0.9"><title>digital-nomad (g3, i4)</title></circle>
<circle cx="341.6" cy="361.9" r="7.7" fill="#18C98C" opacity="0.9"><title>dtv-visa (g3, i3)</title></circle>
<circle cx="338.5" cy="375.1" r="7.7" fill="#18C98C" opacity="0.9"><title>eec (g3, i3)</title></circle>
<circle cx="760.6" cy="393.7" r="6.0" fill="#18C98C" opacity="0.9"><title>tiktok-thailand-investment (g3, i2)</title></circle>
<circle cx="340.0" cy="390.1" r="7.7" fill="#18C98C" opacity="0.9"><title>chiang-mai (g3, i3)</title></circle>
<circle cx="674.1" cy="271.9" r="6.0" fill="#18C98C" opacity="0.9"><title>phuket (g3, i2)</title></circle>
<circle cx="414.2" cy="300.7" r="7.7" fill="#18C98C" opacity="0.9"><title>smart-visa (g3, i3)</title></circle>
<circle cx="675.8" cy="315.4" r="6.0" fill="#18C98C" opacity="0.9"><title>ltr-visa (g3, i2)</title></circle>
<circle cx="627.3" cy="254.4" r="6.0" fill="#18C98C" opacity="0.9"><title>innovation-one-fund (g3, i2)</title></circle>
<circle cx="697.3" cy="272.1" r="6.0" fill="#18C98C" opacity="0.9"><title>set (g3, i2)</title></circle>
<circle cx="711.2" cy="346.1" r="6.0" fill="#18C98C" opacity="0.9"><title>mai (g3, i2)</title></circle>
<circle cx="576.8" cy="235.8" r="6.0" fill="#18C98C" opacity="0.9"><title>giztix (g3, i2)</title></circle>
<circle cx="704.8" cy="314.9" r="6.0" fill="#18C98C" opacity="0.9"><title>ricult (g3, i2)</title></circle>
<circle cx="519.5" cy="250.7" r="6.0" fill="#18C98C" opacity="0.9"><title>doctor-raksa (g3, i2)</title></circle>
<circle cx="447.2" cy="284.8" r="6.0" fill="#18C98C" opacity="0.9"><title>abacus-digital (g3, i2)</title></circle>
<circle cx="736.2" cy="371.5" r="6.0" fill="#18C98C" opacity="0.9"><title>rabbit-care (g3, i2)</title></circle>
<circle cx="568.4" cy="266.5" r="6.0" fill="#18C98C" opacity="0.9"><title>finnomena (g3, i2)</title></circle>
<circle cx="549.5" cy="238.7" r="6.0" fill="#18C98C" opacity="0.9"><title>freshket (g3, i2)</title></circle>
<circle cx="514.8" cy="265.9" r="6.0" fill="#18C98C" opacity="0.9"><title>builk (g3, i2)</title></circle>
<circle cx="514.4" cy="218.3" r="6.0" fill="#18C98C" opacity="0.9"><title>hd (g3, i2)</title></circle>
<circle cx="418.0" cy="277.0" r="6.0" fill="#18C98C" opacity="0.9"><title>amity (g3, i2)</title></circle>
<circle cx="551.7" cy="255.4" r="6.0" fill="#18C98C" opacity="0.9"><title>etran (g3, i2)</title></circle>
<circle cx="734.9" cy="345.0" r="6.0" fill="#18C98C" opacity="0.9"><title>sea-lion (g3, i2)</title></circle>
<circle cx="481.4" cy="259.2" r="6.0" fill="#18C98C" opacity="0.9"><title>cloud-first-policy (g3, i2)</title></circle>
<circle cx="416.1" cy="259.2" r="6.0" fill="#18C98C" opacity="0.9"><title>deliveree (g3, i2)</title></circle>
<circle cx="388.2" cy="411.4" r="11.1" fill="#B072FF" opacity="0.9"><title>unicorn (g4, i5)</title></circle>
<circle cx="415.2" cy="379.5" r="9.4" fill="#B072FF" opacity="0.9"><title>flash-express (g4, i4)</title></circle>
<circle cx="510.1" cy="347.6" r="7.7" fill="#B072FF" opacity="0.9"><title>bangkok-valley (g4, i3)</title></circle>
<circle cx="451.6" cy="354.6" r="9.4" fill="#B072FF" opacity="0.9"><title>techsauce (g4, i4)</title></circle>
<circle cx="389.5" cy="401.9" r="9.4" fill="#B072FF" opacity="0.9"><title>boi (g4, i4)</title></circle>
<circle cx="418.8" cy="352.2" r="7.7" fill="#B072FF" opacity="0.9"><title>ascend-money (g4, i3)</title></circle>
<circle cx="632.0" cy="422.5" r="7.7" fill="#B072FF" opacity="0.9"><title>opn (g4, i3)</title></circle>
<circle cx="481.7" cy="342.5" r="7.7" fill="#B072FF" opacity="0.9"><title>bitkub (g4, i3)</title></circle>
<circle cx="455.6" cy="352.7" r="7.7" fill="#B072FF" opacity="0.9"><title>500-tuktuks (g4, i3)</title></circle>
<circle cx="561.9" cy="343.1" r="7.7" fill="#B072FF" opacity="0.9"><title>hubba (g4, i3)</title></circle>
<circle cx="711.8" cy="585.8" r="6.0" fill="#B072FF" opacity="0.9"><title>scale-up (g4, i2)</title></circle>
<circle cx="498.7" cy="333.2" r="7.7" fill="#B072FF" opacity="0.9"><title>cvc (g4, i3)</title></circle>
<circle cx="534.1" cy="332.8" r="7.7" fill="#B072FF" opacity="0.9"><title>depa (g4, i3)</title></circle>
<circle cx="583.2" cy="347.8" r="7.7" fill="#B072FF" opacity="0.9"><title>nia (g4, i3)</title></circle>
<circle cx="665.3" cy="549.3" r="6.0" fill="#B072FF" opacity="0.9"><title>ndid (g4, i2)</title></circle>
<circle cx="595.4" cy="380.9" r="7.7" fill="#B072FF" opacity="0.9"><title>krating-poonpol (g4, i3)</title></circle>
<circle cx="642.9" cy="393.9" r="6.0" fill="#B072FF" opacity="0.9"><title>amarit-charoenphan (g4, i2)</title></circle>
<circle cx="618.1" cy="395.5" r="7.7" fill="#B072FF" opacity="0.9"><title>ookbee (g4, i3)</title></circle>
<circle cx="545.7" cy="343.1" r="7.7" fill="#B072FF" opacity="0.9"><title>dtac-accelerate (g4, i3)</title></circle>
<circle cx="674.7" cy="609.1" r="6.0" fill="#B072FF" opacity="0.9"><title>paul-polapat-ark (g4, i2)</title></circle>
<circle cx="642.8" cy="416.6" r="7.7" fill="#B072FF" opacity="0.9"><title>techsauce-global-summit (g4, i3)</title></circle>
<circle cx="473.0" cy="327.1" r="7.7" fill="#B072FF" opacity="0.9"><title>china-capital-asean (g4, i3)</title></circle>
<circle cx="695.4" cy="625.7" r="6.0" fill="#B072FF" opacity="0.9"><title>sabai (g4, i2)</title></circle>
<circle cx="628.6" cy="406.8" r="7.7" fill="#B072FF" opacity="0.9"><title>tech-talent-shortage (g4, i3)</title></circle>
<circle cx="669.9" cy="453.6" r="6.0" fill="#B072FF" opacity="0.9"><title>krungsri-finnovate (g4, i2)</title></circle>
<circle cx="624.9" cy="366.7" r="7.7" fill="#B072FF" opacity="0.9"><title>scb-10x (g4, i3)</title></circle>
<circle cx="605.8" cy="730.8" r="4.3" fill="#B072FF" opacity="0.9"><title>chasm (g4, i1)</title></circle>
<circle cx="703.3" cy="538.2" r="6.0" fill="#B072FF" opacity="0.9"><title>openspace (g4, i2)</title></circle>
<circle cx="678.1" cy="488.7" r="6.0" fill="#B072FF" opacity="0.9"><title>line-scaleup (g4, i2)</title></circle>
<circle cx="649.1" cy="658.1" r="6.0" fill="#B072FF" opacity="0.9"><title>pdpa (g4, i2)</title></circle>
<circle cx="685.2" cy="479.7" r="6.0" fill="#B072FF" opacity="0.9"><title>mai-pen-rai (g4, i2)</title></circle>
<circle cx="659.1" cy="475.4" r="6.0" fill="#B072FF" opacity="0.9"><title>kreng-jai (g4, i2)</title></circle>
<circle cx="652.3" cy="598.5" r="6.0" fill="#B072FF" opacity="0.9"><title>open-government-data (g4, i2)</title></circle>
<circle cx="679.2" cy="523.3" r="6.0" fill="#B072FF" opacity="0.9"><title>natavudh-pungcharoenpong (g4, i2)</title></circle>
<circle cx="652.3" cy="624.3" r="6.0" fill="#B072FF" opacity="0.9"><title>oranuch-lerdsuwankij (g4, i2)</title></circle>
<circle cx="637.6" cy="704.9" r="6.0" fill="#B072FF" opacity="0.9"><title>sompoat-chansomboon (g4, i2)</title></circle>
<circle cx="451.4" cy="381.4" r="11.1" fill="#FF4F8B" opacity="0.9"><title>korean-wave (g5, i5)</title></circle>
<circle cx="501.6" cy="388.4" r="9.4" fill="#FF4F8B" opacity="0.9"><title>lisa (g5, i4)</title></circle>
<circle cx="555.9" cy="407.5" r="7.7" fill="#FF4F8B" opacity="0.9"><title>solo-economy (g5, i3)</title></circle>
<circle cx="530.6" cy="413.2" r="7.7" fill="#FF4F8B" opacity="0.9"><title>bad-genius (g5, i3)</title></circle>
<circle cx="529.2" cy="407.6" r="7.7" fill="#FF4F8B" opacity="0.9"><title>byungmat-humor (g5, i3)</title></circle>
<circle cx="556.8" cy="446.3" r="7.7" fill="#FF4F8B" opacity="0.9"><title>k-beauty (g5, i3)</title></circle>
<circle cx="589.7" cy="466.9" r="7.7" fill="#FF4F8B" opacity="0.9"><title>thailand-pet-market (g5, i3)</title></circle>
<circle cx="557.9" cy="451.4" r="7.7" fill="#FF4F8B" opacity="0.9"><title>private-education-boom (g5, i3)</title></circle>
<circle cx="598.5" cy="497.7" r="6.0" fill="#FF4F8B" opacity="0.9"><title>cannes-lions (g5, i2)</title></circle>
<circle cx="453.1" cy="666.3" r="6.0" fill="#FF4F8B" opacity="0.9"><title>localization-autonomy (g5, i2)</title></circle>
<circle cx="561.0" cy="411.4" r="7.7" fill="#FF4F8B" opacity="0.9"><title>thailand-aging-society (g5, i3)</title></circle>
<circle cx="567.1" cy="614.4" r="6.0" fill="#FF4F8B" opacity="0.9"><title>lisa-effect (g5, i2)</title></circle>
<circle cx="367.9" cy="719.4" r="6.0" fill="#FF4F8B" opacity="0.9"><title>thacca (g5, i2)</title></circle>
<circle cx="312.3" cy="701.1" r="6.0" fill="#FF4F8B" opacity="0.9"><title>tesf (g5, i2)</title></circle>
<circle cx="593.9" cy="551.4" r="6.0" fill="#FF4F8B" opacity="0.9"><title>edtech (g5, i2)</title></circle>
<circle cx="599.1" cy="532.5" r="6.0" fill="#FF4F8B" opacity="0.9"><title>chulalongkorn-university (g5, i2)</title></circle>
<circle cx="510.9" cy="641.8" r="6.0" fill="#FF4F8B" opacity="0.9"><title>line-man-youtube-ad (g5, i2)</title></circle>
<circle cx="446.7" cy="710.5" r="6.0" fill="#FF4F8B" opacity="0.9"><title>pet-food-market (g5, i2)</title></circle>
<circle cx="427.4" cy="680.6" r="6.0" fill="#FF4F8B" opacity="0.9"><title>megastudy (g5, i2)</title></circle>
<circle cx="544.1" cy="641.5" r="6.0" fill="#FF4F8B" opacity="0.9"><title>mathpresso (g5, i2)</title></circle>
<circle cx="373.7" cy="695.1" r="6.0" fill="#FF4F8B" opacity="0.9"><title>pisa (g5, i2)</title></circle>
<circle cx="563.7" cy="540.5" r="6.0" fill="#FF4F8B" opacity="0.9"><title>15-year-free-education (g5, i2)</title></circle>
<circle cx="571.0" cy="578.5" r="6.0" fill="#FF4F8B" opacity="0.9"><title>cosmax (g5, i2)</title></circle>
<circle cx="596.1" cy="558.1" r="6.0" fill="#FF4F8B" opacity="0.9"><title>kakao-webtoon (g5, i2)</title></circle>
<circle cx="523.0" cy="684.1" r="6.0" fill="#FF4F8B" opacity="0.9"><title>naver-webtoon (g5, i2)</title></circle>
<circle cx="340.8" cy="702.5" r="6.0" fill="#FF4F8B" opacity="0.9"><title>sunsilk-bethatgirl (g5, i2)</title></circle>
<circle cx="402.7" cy="693.2" r="6.0" fill="#FF4F8B" opacity="0.9"><title>netflix-narcos-ad (g5, i2)</title></circle>
<circle cx="300.7" cy="739.2" r="4.3" fill="#FF4F8B" opacity="0.9"><title>ondemand-academy (g5, i1)</title></circle>
<circle cx="379.4" cy="743.6" r="4.3" fill="#FF4F8B" opacity="0.9"><title>co-living (g5, i1)</title></circle>
<circle cx="233.8" cy="704.3" r="4.3" fill="#FF4F8B" opacity="0.9"><title>solo-dining (g5, i1)</title></circle>
<circle cx="357.4" cy="742.0" r="4.3" fill="#FF4F8B" opacity="0.9"><title>fintech (g5, i1)</title></circle>
<circle cx="828.5" cy="464.5" r="9.4" fill="#8B90A2" opacity="0.9"><title>digital-wallet-policy (g6, i4)</title></circle>
<circle cx="191.7" cy="741.0" r="7.7" fill="#8B90A2" opacity="0.9"><title>foreign-business-act (g6, i3)</title></circle>
<circle cx="792.6" cy="604.9" r="6.0" fill="#8B90A2" opacity="0.9"><title>foreign-business-license (g6, i2)</title></circle>
<circle cx="515.8" cy="80.9" r="7.7" fill="#8B90A2" opacity="0.9"><title>phaethongtarn-shinawatra (g6, i3)</title></circle>
<circle cx="250.5" cy="112.3" r="6.0" fill="#8B90A2" opacity="0.9"><title>ev-3-5-program (g6, i2)</title></circle>
<circle cx="222.3" cy="160.6" r="4.3" fill="#8B90A2" opacity="0.9"><title>vat (g6, i1)</title></circle>
<circle cx="589.4" cy="87.6" r="6.0" fill="#8B90A2" opacity="0.9"><title>nstda (g6, i2)</title></circle>
<circle cx="394.9" cy="93.3" r="6.0" fill="#8B90A2" opacity="0.9"><title>work-permit (g6, i2)</title></circle>
<circle cx="615.1" cy="802.7" r="6.0" fill="#8B90A2" opacity="0.9"><title>pheu-thai-party (g6, i2)</title></circle>
<circle cx="123.9" cy="233.7" r="6.0" fill="#8B90A2" opacity="0.9"><title>thai-llm (g6, i2)</title></circle>
<circle cx="240.6" cy="752.8" r="6.0" fill="#8B90A2" opacity="0.9"><title>true-digital-park (g6, i2)</title></circle>
<circle cx="707.9" cy="753.9" r="6.0" fill="#8B90A2" opacity="0.9"><title>bcg-policy (g6, i2)</title></circle>
<circle cx="772.6" cy="690.0" r="4.3" fill="#8B90A2" opacity="0.9"><title>ibc (g6, i1)</title></circle>
<circle cx="805.6" cy="341.5" r="6.0" fill="#8B90A2" opacity="0.9"><title>thai-startups-120 (g6, i2)</title></circle>
<circle cx="769.9" cy="272.2" r="6.0" fill="#8B90A2" opacity="0.9"><title>coworking-space (g6, i2)</title></circle>
<circle cx="202.7" cy="689.8" r="4.3" fill="#FF4F8B" opacity="0.9"><title>truemove-h (g5, i1)</title></circle>
<circle cx="633.0" cy="673.1" r="6.0" fill="#B072FF" opacity="0.9"><title>pi-nong (g4, i2)</title></circle>
<circle cx="396.3" cy="293.4" r="6.0" fill="#18C98C" opacity="0.9"><title>ais-evolution-experience-center (g3, i2)</title></circle>
<circle cx="783.7" cy="404.5" r="4.3" fill="#18C98C" opacity="0.9"><title>blue-zone-project (g3, i1)</title></circle>
<circle cx="761.6" cy="313.8" r="4.3" fill="#18C98C" opacity="0.9"><title>startup-thailand (g3, i1)</title></circle>
<circle cx="330.3" cy="246.9" r="6.0" fill="#FF6A45" opacity="0.9"><title>cp-group (g2, i2)</title></circle>
<circle cx="617.6" cy="731.7" r="4.3" fill="#B072FF" opacity="0.9"><title>seekster (g4, i1)</title></circle>
<circle cx="573.7" cy="762.0" r="4.3" fill="#B072FF" opacity="0.9"><title>silom-sathorn (g4, i1)</title></circle>
<circle cx="701.9" cy="664.2" r="4.3" fill="#B072FF" opacity="0.9"><title>pomelo (g4, i1)</title></circle>
<circle cx="84.7" cy="380.5" r="6.0" fill="#8B90A2" opacity="0.9"><title>corporate-co-funding (g6, i2)</title></circle>
<circle cx="851.4" cy="471.7" r="4.3" fill="#8B90A2" opacity="0.9"><title>wow-summit (g6, i1)</title></circle>
<circle cx="313.9" cy="810.3" r="6.0" fill="#8B90A2" opacity="0.9"><title>dbd (g6, i2)</title></circle>
<circle cx="470.4" cy="842.9" r="4.3" fill="#8B90A2" opacity="0.9"><title>us-thai-amity-treaty (g6, i1)</title></circle>
<circle cx="710.2" cy="166.3" r="4.3" fill="#8B90A2" opacity="0.9"><title>sandbox-88 (g6, i1)</title></circle>
<circle cx="87.5" cy="572.4" r="6.0" fill="#8B90A2" opacity="0.9"><title>global-digital-talent-visa (g6, i2)</title></circle>
<circle cx="74.8" cy="491.0" r="4.3" fill="#8B90A2" opacity="0.9"><title>one-stop-service-center (g6, i1)</title></circle>
<circle cx="326.2" cy="726.4" r="6.0" fill="#FF4F8B" opacity="0.9"><title>thai-home-furnishing (g5, i2)</title></circle>
<circle cx="461.1" cy="685.1" r="6.0" fill="#FF4F8B" opacity="0.9"><title>mond-nissin-waffle-ad (g5, i2)</title></circle>
<circle cx="598.8" cy="481.0" r="6.0" fill="#FF4F8B" opacity="0.9"><title>bangkok-startup-ecosystem (g5, i2)</title></circle>
</svg>