<svg xmlns="http://www.w3.org/2000/svg" viewBox="0 0 900 900" style="background:#070A14">
<circle cx="450" cy="450" r="30.508474576271187" fill="#E8A33D"/>
<circle cx="524.1" cy="457.2" r="11.1" fill="#4FA8FF" opacity="0.9"><title>line (g1, i5)</title></circle>
<circle cx="525.1" cy="478.1" r="11.1" fill="#4FA8FF" opacity="0.9"><title>super-app (g1, i5)</title></circle>
<circle cx="358.9" cy="584.9" r="7.7" fill="#4FA8FF" opacity="0.9"><title>wechat (g1, i3)</title></circle>
<circle cx="470.8" cy="582.5" r="7.7" fill="#4FA8FF" opacity="0.9"><title>mini-program (g1, i3)</title></circle>
<circle cx="426.1" cy="573.1" r="7.7" fill="#4FA8FF" opacity="0.9"><title>thailand-5g (g1, i3)</title></circle>
<circle cx="499.8" cy="524.6" r="7.7" fill="#4FA8FF" opacity="0.9"><title>asean-digital-economy (g1, i3)</title></circle>
<circle cx="513.2" cy="508.7" r="7.7" fill="#4FA8FF" opacity="0.9"><title>ais (g1, i3)</title></circle>
<circle cx="391.7" cy="611.7" r="7.7" fill="#4FA8FF" opacity="0.9"><title>true-corporation (g1, i3)</title></circle>
<circle cx="471.2" cy="543.6" r="7.7" fill="#4FA8FF" opacity="0.9"><title>gojek (g1, i3)</title></circle>
<circle cx="148.0" cy="472.8" r="6.0" fill="#4FA8FF" opacity="0.9"><title>thailand-4g-delay (g1, i2)</title></circle>
<circle cx="223.7" cy="520.8" r="6.0" fill="#4FA8FF" opacity="0.9"><title>dtac (g1, i2)</title></circle>
<circle cx="512.2" cy="540.9" r="7.7" fill="#4FA8FF" opacity="0.9"><title>facebook (g1, i3)</title></circle>
<circle cx="339.6" cy="559.8" r="7.7" fill="#4FA8FF" opacity="0.9"><title>tiktok (g1, i3)</title></circle>
<circle cx="326.4" cy="587.6" r="7.7" fill="#4FA8FF" opacity="0.9"><title>youtube (g1, i3)</title></circle>
<circle cx="455.0" cy="580.0" r="7.7" fill="#4FA8FF" opacity="0.9"><title>mobile-first (g1, i3)</title></circle>
<circle cx="394.1" cy="581.1" r="7.7" fill="#4FA8FF" opacity="0.9"><title>thailand-ev-hub (g1, i3)</title></circle>
<circle cx="124.6" cy="426.7" r="4.3" fill="#4FA8FF" opacity="0.9"><title>prepaid-mobile (g1, i1)</title></circle>
<circle cx="178.3" cy="514.0" r="6.0" fill="#4FA8FF" opacity="0.9"><title>shoppertainment (g1, i2)</title></circle>
<circle cx="184.4" cy="457.1" r="6.0" fill="#4FA8FF" opacity="0.9"><title>japan-affinity (g1, i2)</title></circle>
<circle cx="294.1" cy="564.9" r="6.0" fill="#4FA8FF" opacity="0.9"><title>1997-asian-financial-crisis (g1, i2)</title></circle>
<circle cx="179.3" cy="431.2" r="6.0" fill="#4FA8FF" opacity="0.9"><title>line-creators-market (g1, i2)</title></circle>
<circle cx="271.1" cy="566.2" r="6.0" fill="#4FA8FF" opacity="0.9"><title>2011-thailand-flood (g1, i2)</title></circle>
<circle cx="294.9" cy="573.6" r="6.0" fill="#4FA8FF" opacity="0.9"><title>2014-thailand-coup (g1, i2)</title></circle>
<circle cx="148.9" cy="407.3" r="6.0" fill="#4FA8FF" opacity="0.9"><title>yingluck-shinawatra (g1, i2)</title></circle>
<circle cx="175.8" cy="392.3" r="6.0" fill="#4FA8FF" opacity="0.9"><title>sea-group (g1, i2)</title></circle>
<circle cx="211.7" cy="491.3" r="6.0" fill="#4FA8FF" opacity="0.9"><title>garena (g1, i2)</title></circle>
<circle cx="125.4" cy="386.7" r="4.3" fill="#4FA8FF" opacity="0.9"><title>zalo (g1, i1)</title></circle>
<circle cx="247.7" cy="544.0" r="6.0" fill="#4FA8FF" opacity="0.9"><title>byd (g1, i2)</title></circle>
<circle cx="133.6" cy="455.6" r="4.3" fill="#4FA8FF" opacity="0.9"><title>imd-competitiveness-ranking (g1, i1)</title></circle>
<circle cx="438.5" cy="529.2" r="11.1" fill="#FF6A45" opacity="0.9"><title>promptpay (g2, i5)</title></circle>
<circle cx="432.0" cy="534.9" r="11.1" fill="#FF6A45" opacity="0.9"><title>line-man-wongnai (g2, i5)</title></circle>
<circle cx="491.6" cy="487.3" r="11.1" fill="#FF6A45" opacity="0.9"><title>grab (g2, i5)</title></circle>
<circle cx="404.8" cy="544.4" r="11.1" fill="#FF6A45" opacity="0.9"><title>truemoney (g2, i5)</title></circle>
<circle cx="359.9" cy="523.7" r="9.4" fill="#FF6A45" opacity="0.9"><title>c-commerce (g2, i4)</title></circle>
<circle cx="325.4" cy="519.8" r="9.4" fill="#FF6A45" opacity="0.9"><title>shopee (g2, i4)</title></circle>
<circle cx="298.9" cy="445.8" r="9.4" fill="#FF6A45" opacity="0.9"><title>qr-payment (g2, i4)</title></circle>
<circle cx="305.5" cy="297.3" r="7.7" fill="#FF6A45" opacity="0.9"><title>social-seller (g2, i3)</title></circle>
<circle cx="335.5" cy="500.7" r="9.4" fill="#FF6A45" opacity="0.9"><title>medical-tourism (g2, i4)</title></circle>
<circle cx="255.4" cy="422.4" r="7.7" fill="#FF6A45" opacity="0.9"><title>siriraj-hospital (g2, i3)</title></circle>
<circle cx="356.2" cy="515.4" r="9.4" fill="#FF6A45" opacity="0.9"><title>lazada (g2, i4)</title></circle>
<circle cx="259.6" cy="331.9" r="7.7" fill="#FF6A45" opacity="0.9"><title>tiktok-shop (g2, i3)</title></circle>
<circle cx="381.2" cy="526.9" r="9.4" fill="#FF6A45" opacity="0.9"><title>bank-of-thailand (g2, i4)</title></circle>
<circle cx="296.9" cy="434.7" r="7.7" fill="#FF6A45" opacity="0.9"><title>foodpanda (g2, i3)</title></circle>
<circle cx="309.6" cy="494.1" r="7.7" fill="#FF6A45" opacity="0.9"><title>bumrungrad-hospital (g2, i3)</title></circle>
<circle cx="276.1" cy="457.3" r="7.7" fill="#FF6A45" opacity="0.9"><title>line-bk (g2, i3)</title></circle>
<circle cx="287.1" cy="395.1" r="7.7" fill="#FF6A45" opacity="0.9"><title>kasikornbank (g2, i3)</title></circle>
<circle cx="304.8" cy="463.9" r="7.7" fill="#FF6A45" opacity="0.9"><title>ant-group (g2, i3)</title></circle>
<circle cx="266.1" cy="379.4" r="7.7" fill="#FF6A45" opacity="0.9"><title>rabbit-line-pay (g2, i3)</title></circle>
<circle cx="290.6" cy="213.0" r="6.0" fill="#FF6A45" opacity="0.9"><title>meituan (g2, i2)</title></circle>
<circle cx="289.7" cy="338.1" r="7.7" fill="#FF6A45" opacity="0.9"><title>scbx (g2, i3)</title></circle>
<circle cx="259.0" cy="337.8" r="7.7" fill="#FF6A45" opacity="0.9"><title>virtual-bank (g2, i3)</title></circle>
<circle cx="310.4" cy="483.1" r="7.7" fill="#FF6A45" opacity="0.9"><title>5g-smart-hospital (g2, i3)</title></circle>
<circle cx="463.4" cy="156.4" r="6.0" fill="#FF6A45" opacity="0.9"><title>smart-healthcare-initiative (g2, i2)</title></circle>
<circle cx="322.5" cy="261.7" r="6.0" fill="#FF6A45" opacity="0.9"><title>delivery-hero (g2, i2)</title></circle>
<circle cx="446.6" cy="159.4" r="6.0" fill="#FF6A45" opacity="0.9"><title>robinhood (g2, i2)</title></circle>
<circle cx="257.0" cy="300.2" r="6.0" fill="#FF6A45" opacity="0.9"><title>delivery-subsidy-war (g2, i2)</title></circle>
<circle cx="292.4" cy="364.0" r="7.7" fill="#FF6A45" opacity="0.9"><title>live-social-commerce (g2, i3)</title></circle>
<circle cx="386.4" cy="145.1" r="6.0" fill="#FF6A45" opacity="0.9"><title>wongnai (g2, i2)</title></circle>
<circle cx="537.2" cy="134.7" r="4.3" fill="#FF6A45" opacity="0.9"><title>gln (g2, i1)</title></circle>
<circle cx="391.7" cy="200.7" r="6.0" fill="#FF6A45" opacity="0.9"><title>lunit (g2, i2)</title></circle>
<circle cx="506.1" cy="141.2" r="6.0" fill="#FF6A45" opacity="0.9"><title>telemedicine (g2, i2)</title></circle>
<circle cx="515.1" cy="128.3" r="4.3" fill="#FF6A45" opacity="0.9"><title>minor-food-group (g2, i1)</title></circle>
<circle cx="283.2" cy="243.1" r="6.0" fill="#FF6A45" opacity="0.9"><title>line-shopping (g2, i2)</title></circle>
<circle cx="367.9" cy="200.4" r="6.0" fill="#FF6A45" opacity="0.9"><title>kol (g2, i2)</title></circle>
<circle cx="437.0" cy="171.5" r="6.0" fill="#FF6A45" opacity="0.9"><title>nft (g2, i2)</title></circle>
<circle cx="429.7" cy="130.0" r="4.3" fill="#FF6A45" opacity="0.9"><title>community-commerce (g2, i1)</title></circle>
<circle cx="331.7" cy="231.7" r="6.0" fill="#FF6A45" opacity="0.9"><title>king-chulalongkorn (g2, i2)</title></circle>
<circle cx="416.8" cy="501.3" r="11.1" fill="#18C98C" opacity="0.9"><title>thailand-4-0 (g3, i5)</title></circle>
<circle cx="387.9" cy="489.0" r="9.4" fill="#18C98C" opacity="0.9"><title>asean-digital-hub (g3, i4)</title></circle>
<circle cx="369.5" cy="451.1" r="9.4" fill="#18C98C" opacity="0.9"><title>bamboo-diplomacy (g3, i4)</title></circle>
<circle cx="362.1" cy="395.1" r="9.4" fill="#18C98C" opacity="0.9"><title>huawei (g3, i4)</title></circle>
<circle cx="351.2" cy="466.6" r="7.7" fill="#18C98C" opacity="0.9"><title>asean-ai-hub (g3, i3)</title></circle>
<circle cx="338.0" cy="383.0" r="7.7" fill="#18C98C" opacity="0.9"><title>digital-valley-thailand (g3, i3)</title></circle>
<circle cx="430.5" cy="297.6" r="7.7" fill="#18C98C" opacity="0.9"><title>us-bigtech-datacenter (g3, i3)</title></circle>
<circle cx="358.9" cy="456.0" r="9.4" fill="#18C98C" opacity="0.9"><title>digital-nomad (g3, i4)</title></circle>
<circle cx="336.6" cy="400.6" r="7.7" fill="#18C98C" opacity="0.9"><title>dtv-visa (g3, i3)</title></circle>
<circle cx="400.0" cy="317.9" r="7.7" fill="#18C98C" opacity="0.9"><title>eec (g3, i3)</title></circle>
<circle cx="773.2" cy="391.0" r="6.0" fill="#18C98C" opacity="0.9"><title>tiktok-thailand-investment (g3, i2)</title></circle>
<circle cx="342.5" cy="436.3" r="7.7" fill="#18C98C" opacity="0.9"><title>chiang-mai (g3, i3)</title></circle>
<circle cx="723.7" cy="357.9" r="6.0" fill="#18C98C" opacity="0.9"><title>phuket (g3, i2)</title></circle>
<circle cx="366.9" cy="346.0" r="7.7" fill="#18C98C" opacity="0.9"><title>smart-visa (g3, i3)</title></circle>
<circle cx="697.1" cy="335.9" r="6.0" fill="#18C98C" opacity="0.9"><title>ltr-visa (g3, i2)</title></circle>
<circle cx="659.8" cy="305.5" r="6.0" fill="#18C98C" opacity="0.9"><title>innovation-one-fund (g3, i2)</title></circle>
<circle cx="749.3" cy="381.1" r="6.0" fill="#18C98C" opacity="0.9"><title>set (g3, i2)</title></circle>
<circle cx="656.9" cy="269.0" r="6.0" fill="#18C98C" opacity="0.9"><title>mai (g3, i2)</title></circle>
<circle cx="495.8" cy="225.8" r="6.0" fill="#18C98C" opacity="0.9"><title>giztix (g3, i2)</title></circle>
<circle cx="721.1" cy="336.1" r="6.0" fill="#18C98C" opacity="0.9"><title>ricult (g3, i2)</title></circle>
<circle cx="532.8" cy="259.9" r="6.0" fill="#18C98C" opacity="0.9"><title>doctor-raksa (g3, i2)</title></circle>
<circle cx="383.3" cy="308.1" r="6.0" fill="#18C98C" opacity="0.9"><title>abacus-digital (g3, i2)</title></circle>
<circle cx="689.4" cy="308.4" r="6.0" fill="#18C98C" opacity="0.9"><title>rabbit-care (g3, i2)</title></circle>
<circle cx="530.5" cy="240.9" r="6.0" fill="#18C98C" opacity="0.9"><title>finnomena (g3, i2)</title></circle>
<circle cx="557.8" cy="235.1" r="6.0" fill="#18C98C" opacity="0.9"><title>freshket (g3, i2)</title></circle>
<circle cx="463.3" cy="267.7" r="6.0" fill="#18C98C" opacity="0.9"><title>builk (g3, i2)</title></circle>
<circle cx="609.1" cy="255.8" r="6.0" fill="#18C98C" opacity="0.9"><title>hd (g3, i2)</title></circle>
<circle cx="496.1" cy="270.6" r="6.0" fill="#18C98C" opacity="0.9"><title>amity (g3, i2)</title></circle>
<circle cx="549.6" cy="266.3" r="6.0" fill="#18C98C" opacity="0.9"><title>etran (g3, i2)</title></circle>
<circle cx="680.6" cy="269.7" r="6.0" fill="#18C98C" opacity="0.9"><title>sea-lion (g3, i2)</title></circle>
<circle cx="401.0" cy="270.5" r="6.0" fill="#18C98C" opacity="0.9"><title>cloud-first-policy (g3, i2)</title></circle>
<circle cx="500.7" cy="260.2" r="6.0" fill="#18C98C" opacity="0.9"><title>deliveree (g3, i2)</title></circle>
<circle cx="413.0" cy="398.9" r="11.1" fill="#B072FF" opacity="0.9"><title>unicorn (g4, i5)</title></circle>
<circle cx="467.4" cy="352.8" r="9.4" fill="#B072FF" opacity="0.9"><title>flash-express (g4, i4)</title></circle>
<circle cx="464.3" cy="337.1" r="7.7" fill="#B072FF" opacity="0.9"><title>bangkok-valley (g4, i3)</title></circle>
<circle cx="439.2" cy="374.2" r="9.4" fill="#B072FF" opacity="0.9"><title>techsauce (g4, i4)</title></circle>
<circle cx="415.6" cy="381.4" r="9.4" fill="#B072FF" opacity="0.9"><title>boi (g4, i4)</title></circle>
<circle cx="443.7" cy="379.1" r="7.7" fill="#B072FF" opacity="0.9"><title>ascend-money (g4, i3)</title></circle>
<circle cx="605.2" cy="370.0" r="7.7" fill="#B072FF" opacity="0.9"><title>opn (g4, i3)</title></circle>
<circle cx="505.2" cy="352.6" r="7.7" fill="#B072FF" opacity="0.9"><title>bitkub (g4, i3)</title></circle>
<circle cx="415.8" cy="351.8" r="7.7" fill="#B072FF" opacity="0.9"><title>500-tuktuks (g4, i3)</title></circle>
<circle cx="552.6" cy="347.8" r="7.7" fill="#B072FF" opacity="0.9"><title>hubba (g4, i3)</title></circle>
<circle cx="605.0" cy="691.2" r="6.0" fill="#B072FF" opacity="0.9"><title>scale-up (g4, i2)</title></circle>
<circle cx="534.8" cy="347.0" r="7.7" fill="#B072FF" opacity="0.9"><title>cvc (g4, i3)</title></circle>
<circle cx="528.0" cy="358.2" r="7.7" fill="#B072FF" opacity="0.9"><title>depa (g4, i3)</title></circle>
<circle cx="561.6" cy="335.4" r="7.7" fill="#B072FF" opacity="0.9"><title>nia (g4, i3)</title></circle>
<circle cx="661.5" cy="566.7" r="6.0" fill="#B072FF" opacity="0.9"><title>ndid (g4, i2)</title></circle>
<circle cx="565.2" cy="345.0" r="7.7" fill="#B072FF" opacity="0.9"><title>krating-poonpol (g4, i3)</title></circle>
<circle cx="660.7" cy="454.5" r="6.0" fill="#B072FF" opacity="0.9"><title>amarit-charoenphan (g4, i2)</title></circle>
<circle cx="576.8" cy="364.0" r="7.7" fill="#B072FF" opacity="0.9"><title>ookbee (g4, i3)</title></circle>
<circle cx="573.4" cy="379.1" r="7.7" fill="#B072FF" opacity="0.9"><title>dtac-accelerate (g4, i3)</title></circle>
<circle cx="652.4" cy="631.9" r="6.0" fill="#B072FF" opacity="0.9"><title>paul-polapat-ark (g4, i2)</title></circle>
<circle cx="646.9" cy="444.3" r="7.7" fill="#B072FF" opacity="0.9"><title>techsauce-global-summit (g4, i3)</title></circle>
<circle cx="487.4" cy="329.6" r="7.7" fill="#B072FF" opacity="0.9"><title>china-capital-asean (g4, i3)</title></circle>
<circle cx="667.0" cy="633.4" r="6.0" fill="#B072FF" opacity="0.9"><title>sabai (g4, i2)</title></circle>
<circle cx="619.5" cy="387.0" r="7.7" fill="#B072FF" opacity="0.9"><title>tech-talent-shortage (g4, i3)</title></circle>
<circle cx="677.0" cy="442.8" r="6.0" fill="#B072FF" opacity="0.9"><title>krungsri-finnovate (g4, i2)</title></circle>
<circle cx="622.1" cy="389.7" r="7.7" fill="#B072FF" opacity="0.9"><title>scb-10x (g4, i3)</title></circle>
<circle cx="585.9" cy="727.8" r="4.3" fill="#B072FF" opacity="0.9"><title>chasm (g4, i1)</title></circle>
<circle cx="701.1" cy="478.6" r="6.0" fill="#B072FF" opacity="0.9"><title>openspace (g4, i2)</title></circle>
<circle cx="661.5" cy="400.2" r="6.0" fill="#B072FF" opacity="0.9"><title>line-scaleup (g4, i2)</title></circle>
<circle cx="715.3" cy="561.1" r="6.0" fill="#B072FF" opacity="0.9"><title>pdpa (g4, i2)</title></circle>
<circle cx="663.6" cy="532.5" r="6.0" fill="#B072FF" opacity="0.9"><title>mai-pen-rai (g4, i2)</title></circle>
<circle cx="653.9" cy="491.8" r="6.0" fill="#B072FF" opacity="0.9"><title>kreng-jai (g4, i2)</title></circle>
<circle cx="699.2" cy="522.0" r="6.0" fill="#B072FF" opacity="0.9"><title>open-government-data (g4, i2)</title></circle>
<circle cx="670.3" cy="543.4" r="6.0" fill="#B072FF" opacity="0.9"><title>natavudh-pungcharoenpong (g4, i2)</title></circle>
<circle cx="672.5" cy="599.3" r="6.0" fill="#B072FF" opacity="0.9"><title>oranuch-lerdsuwankij (g4, i2)</title></circle>
<circle cx="710.0" cy="600.9" r="6.0" fill="#B072FF" opacity="0.9"><title>sompoat-chansomboon (g4, i2)</title></circle>
<circle cx="469.2" cy="403.7" r="11.1" fill="#FF4F8B" opacity="0.9"><title>korean-wave (g5, i5)</title></circle>
<circle cx="469.4" cy="382.2" r="9.4" fill="#FF4F8B" opacity="0.9"><title>lisa (g5, i4)</title></circle>
<circle cx="560.6" cy="430.0" r="7.7" fill="#FF4F8B" opacity="0.9"><title>solo-economy (g5, i3)</title></circle>
<circle cx="516.9" cy="384.2" r="7.7" fill="#FF4F8B" opacity="0.9"><title>bad-genius (g5, i3)</title></circle>
<circle cx="546.4" cy="417.3" r="7.7" fill="#FF4F8B" opacity="0.9"><title>byungmat-humor (g5, i3)</title></circle>
<circle cx="518.9" cy="375.6" r="7.7" fill="#FF4F8B" opacity="0.9"><title>k-beauty (g5, i3)</title></circle>
<circle cx="582.6" cy="475.4" r="7.7" fill="#FF4F8B" opacity="0.9"><title>thailand-pet-market (g5, i3)</title></circle>
<circle cx="551.5" cy="410.7" r="7.7" fill="#FF4F8B" opacity="0.9"><title>private-education-boom (g5, i3)</title></circle>
<circle cx="564.5" cy="568.5" r="6.0" fill="#FF4F8B" opacity="0.9"><title>cannes-lions (g5, i2)</title></circle>
<circle cx="488.8" cy="645.2" r="6.0" fill="#FF4F8B" opacity="0.9"><title>localization-autonomy (g5, i2)</title></circle>
<circle cx="580.9" cy="439.9" r="7.7" fill="#FF4F8B" opacity="0.9"><title>thailand-aging-society (g5, i3)</title></circle>
<circle cx="580.5" cy="597.3" r="6.0" fill="#FF4F8B" opacity="0.9"><title>lisa-effect (g5, i2)</title></circle>
<circle cx="434.1" cy="716.9" r="6.0" fill="#FF4F8B" opacity="0.9"><title>thacca (g5, i2)</title></circle>
<circle cx="382.8" cy="704.8" r="6.0" fill="#FF4F8B" opacity="0.9"><title>tesf (g5, i2)</title></circle>
<circle cx="586.8" cy="545.6" r="6.0" fill="#FF4F8B" opacity="0.9"><title>edtech (g5, i2)</title></circle>
<circle cx="594.5" cy="522.2" r="6.0" fill="#FF4F8B" opacity="0.9"><title>chulalongkorn-university (g5, i2)</title></circle>
<circle cx="595.4" cy="569.3" r="6.0" fill="#FF4F8B" opacity="0.9"><title>line-man-youtube-ad (g5, i2)</title></circle>
<circle cx="397.2" cy="674.7" r="6.0" fill="#FF4F8B" opacity="0.9"><title>pet-food-market (g5, i2)</title></circle>
<circle cx="462.8" cy="660.6" r="6.0" fill="#FF4F8B" opacity="0.9"><title>megastudy (g5, i2)</title></circle>
<circle cx="543.4" cy="635.5" r="6.0" fill="#FF4F8B" opacity="0.9"><title>mathpresso (g5, i2)</title></circle>
<circle cx="369.2" cy="684.0" r="6.0" fill="#FF4F8B" opacity="0.9"><title>pisa (g5, i2)</title></circle>
<circle cx="586.5" cy="448.2" r="6.0" fill="#FF4F8B" opacity="0.9"><title>15-year-free-education (g5, i2)</title></circle>
<circle cx="527.8" cy="604.8" r="6.0" fill="#FF4F8B" opacity="0.9"><title>cosmax (g5, i2)</title></circle>
<circle cx="508.9" cy="620.0" r="6.0" fill="#FF4F8B" opacity="0.9"><title>kakao-webtoon (g5, i2)</title></circle>
<circle cx="496.1" cy="671.1" r="6.0" fill="#FF4F8B" opacity="0.9"><title>naver-webtoon (g5, i2)</title></circle>
<circle cx="423.3" cy="693.2" r="6.0" fill="#FF4F8B" opacity="0.9"><title>sunsilk-bethatgirl (g5, i2)</title></circle>
<circle cx="429.0" cy="671.8" r="6.0" fill="#FF4F8B" opacity="0.9"><title>netflix-narcos-ad (g5, i2)</title></circle>
<circle cx="347.6" cy="726.9" r="4.3" fill="#FF4F8B" opacity="0.9"><title>ondemand-academy (g5, i1)</title></circle>
<circle cx="289.5" cy="699.2" r="4.3" fill="#FF4F8B" opacity="0.9"><title>co-living (g5, i1)</title></circle>
<circle cx="217.9" cy="662.0" r="4.3" fill="#FF4F8B" opacity="0.9"><title>solo-dining (g5, i1)</title></circle>
<circle cx="257.1" cy="688.4" r="4.3" fill="#FF4F8B" opacity="0.9"><title>fintech (g5, i1)</title></circle>
<circle cx="822.6" cy="464.0" r="9.4" fill="#8B90A2" opacity="0.9"><title>digital-wallet-policy (g6, i4)</title></circle>
<circle cx="166.7" cy="679.2" r="7.7" fill="#8B90A2" opacity="0.9"><title>foreign-business-act (g6, i3)</title></circle>
<circle cx="224.2" cy="127.5" r="6.0" fill="#8B90A2" opacity="0.9"><title>foreign-business-license (g6, i2)</title></circle>
<circle cx="519.9" cy="74.5" r="7.7" fill="#8B90A2" opacity="0.9"><title>phaethongtarn-shinawatra (g6, i3)</title></circle>
<circle cx="376.6" cy="819.7" r="6.0" fill="#8B90A2" opacity="0.9"><title>ev-3-5-program (g6, i2)</title></circle>
<circle cx="132.7" cy="674.2" r="4.3" fill="#8B90A2" opacity="0.9"><title>vat (g6, i1)</title></circle>
<circle cx="809.0" cy="599.0" r="6.0" fill="#8B90A2" opacity="0.9"><title>nstda (g6, i2)</title></circle>
<circle cx="812.5" cy="351.2" r="6.0" fill="#8B90A2" opacity="0.9"><title>work-permit (g6, i2)</title></circle>
<circle cx="118.6" cy="608.0" r="6.0" fill="#8B90A2" opacity="0.9"><title>pheu-thai-party (g6, i2)</title></circle>
<circle cx="602.1" cy="114.1" r="6.0" fill="#8B90A2" opacity="0.9"><title>thai-llm (g6, i2)</title></circle>
<circle cx="90.2" cy="276.2" r="6.0" fill="#8B90A2" opacity="0.9"><title>true-digital-park (g6, i2)</title></circle>
<circle cx="706.6" cy="746.8" r="6.0" fill="#8B90A2" opacity="0.9"><title>bcg-policy (g6, i2)</title></circle>
<circle cx="50.5" cy="491.5" r="4.3" fill="#8B90A2" opacity="0.9"><title>ibc (g6, i1)</title></circle>
<circle cx="567.5" cy="786.6" r="6.0" fill="#8B90A2" opacity="0.9"><title>thai-startups-120 (g6, i2)</title></circle>
<circle cx="785.4" cy="272.1" r="6.0" fill="#8B90A2" opacity="0.9"><title>coworking-space (g6, i2)</title></circle>
<circle cx="413.1" cy="713.5" r="6.0" fill="#FF4F8B" opacity="0.9"><title>thailand-medical-tourism (g5, i2)</title></circle>
<circle cx="254.9" cy="706.2" r="4.3" fill="#FF4F8B" opacity="0.9"><title>truemove-h (g5, i1)</title></circle>
<circle cx="357.5" cy="716.5" r="4.3" fill="#FF4F8B" opacity="0.9"><title>bumrungrad-international (g5, i1)</title></circle>
<circle cx="591.8" cy="470.4" r="6.0" fill="#FF4F8B" opacity="0.9"><title>asean-digital-heart (g5, i2)</title></circle>
<circle cx="848.1" cy="506.9" r="4.3" fill="#8B90A2" opacity="0.9"><title>thailand-4-0-industrial-strategy (g6, i1)</title></circle>
<circle cx="237.1" cy="150.8" r="4.3" fill="#8B90A2" opacity="0.9"><title>smart-visa-program (g6, i1)</title></circle>
<circle cx="725.2" cy="687.1" r="4.3" fill="#8B90A2" opacity="0.9"><title>digital-economy-promotion-agency (g6, i1)</title></circle>
<circle cx="243.6" cy="763.8" r="4.3" fill="#8B90A2" opacity="0.9"><title>cloud-first-gov-policy (g6, i1)</title></circle>
<circle cx="432.5" cy="803.1" r="4.3" fill="#8B90A2" opacity="0.9"><title>ltr-visa-program (g6, i1)</title></circle>
<circle cx="360.3" cy="72.7" r="4.3" fill="#8B90A2" opacity="0.9"><title>destination-thailand-visa (g6, i1)</title></circle>
<circle cx="731.6" cy="214.3" r="4.3" fill="#8B90A2" opacity="0.9"><title>kreng-jai-culture (g6, i1)</title></circle>
<circle cx="638.9" cy="644.3" r="6.0" fill="#B072FF" opacity="0.9"><title>pi-nong (g4, i2)</title></circle>
<circle cx="403.0" cy="291.0" r="6.0" fill="#18C98C" opacity="0.9"><title>ais-evolution-experience-center (g3, i2)</title></circle>
<circle cx="747.2" cy="307.0" r="4.3" fill="#18C98C" opacity="0.9"><title>blue-zone-project (g3, i1)</title></circle>
<circle cx="779.6" cy="413.7" r="4.3" fill="#18C98C" opacity="0.9"><title>startup-thailand (g3, i1)</title></circle>
<circle cx="262.1" cy="302.9" r="6.0" fill="#FF6A45" opacity="0.9"><title>cp-group (g2, i2)</title></circle>
<circle cx="690.1" cy="644.0" r="4.3" fill="#B072FF" opacity="0.9"><title>seekster (g4, i1)</title></circle>
<circle cx="555.2" cy="747.2" r="4.3" fill="#B072FF" opacity="0.9"><title>silom-sathorn (g4, i1)</title></circle>
<circle cx="698.1" cy="626.4" r="4.3" fill="#B072FF" opacity="0.9"><title>pomelo (g4, i1)</title></circle>
<circle cx="85.1" cy="357.2" r="6.0" fill="#8B90A2" opacity="0.9"><title>corporate-co-funding (g6, i2)</title></circle>
<circle cx="572.6" cy="83.8" r="4.3" fill="#8B90A2" opacity="0.9"><title>wow-summit (g6, i1)</title></circle>
</svg>